<svg class="icon icon-accessability {CLASSES}" style="isolation:isolate" aria-labelledby="svg-title-{ARIA_TITLE_ID} svg-desc-{ARIA_DESC_ID}" role="img" viewBox="28 976 46 46" xmlns="http://www.w3.org/2000/svg">
<title id="svg-title-{ARIA_TITLE_ID}">Accessability</title>
<desc id="svg-desc-{ARIA_DESC_ID}">Accessability Person Icon</desc><path d=" M 51 976 C 38.309 976 28 986.309 28 999 C 28 1011.691 38.309 1022 51 1022 C 63.691 1022 74 1011.691 74 999 C 74 986.309 63.691 976 51 976 Z  M 51 978 C 62.61 978 72 987.39 72 999 C 72 1010.61 62.61 1020 51 1020 C 39.39 1020 30 1010.61 30 999 C 30 987.39 39.39 978 51 978 Z  M 51 981 C 48.8 981 47 982.8 47 985 C 47 987.2 48.8 989 51 989 C 53.2 989 55 987.2 55 985 C 55 982.8 53.2 981 51 981 Z  M 51 983 C 52.117 983 53 983.883 53 985 C 53 986.117 52.117 987 51 987 C 49.883 987 49 986.117 49 985 C 49 983.883 49.883 983 51 983 Z  M 38.812 988.438 C 37.797 988.516 36.867 989.176 36.532 990.188 C 36.094 991.532 36.798 992.981 38.125 993.468 L 46 996.282 L 46 1002.876 L 43.5 1012.907 C 43.113 1014.462 44.305 1016.001 45.906 1016.001 C 46.976 1016.001 47.946 1015.301 48.281 1014.282 L 51 1006.125 L 53.719 1014.281 C 54.061 1015.304 55.016 1015.995 56.094 1016 C 57.695 1016 58.887 1014.46 58.5 1012.906 L 56 1002.875 L 56 996.281 L 63.875 993.469 C 65.203 992.983 65.908 991.532 65.469 990.187 C 65.019 988.84 63.504 988.113 62.156 988.562 L 54.875 991 L 47.125 991 L 39.844 988.562 C 39.512 988.452 39.162 988.409 38.813 988.438 L 38.812 988.438 Z  M 38.938 990.438 C 39.022 990.433 39.107 990.443 39.188 990.468 L 46.688 992.938 L 46.844 993 L 55.156 993 L 55.313 992.937 L 62.813 990.469 C 63.137 990.359 63.453 990.519 63.563 990.844 C 63.614 990.993 63.603 991.157 63.533 991.298 C 63.462 991.439 63.337 991.546 63.187 991.594 L 54.657 994.625 L 54 994.844 L 54 1003.125 L 56.563 1013.375 C 56.648 1013.715 56.441 1014 56.093 1014 C 55.87 1014.003 55.67 1013.865 55.593 1013.656 L 52.031 1003.031 L 52.031 1002.938 C 52.071 1002.418 51.703 1001.955 51.188 1001.875 L 51.156 1001.875 C 51.105 1001.861 51.053 1001.85 51 1001.844 L 50.969 1001.844 C 50.916 1001.85 50.863 1001.861 50.812 1001.875 C 50.759 1001.881 50.707 1001.892 50.656 1001.906 C 50.203 1002.052 49.916 1002.496 49.969 1002.969 L 46.406 1013.656 C 46.329 1013.865 46.129 1014.003 45.906 1014 C 45.559 1014 45.352 1013.715 45.438 1013.375 L 48 1003.125 L 48 994.844 L 47.344 994.625 L 38.812 991.594 C 38.662 991.545 38.538 991.439 38.468 991.298 C 38.397 991.156 38.387 990.993 38.438 990.844 C 38.504 990.617 38.703 990.455 38.938 990.437 L 38.938 990.438 Z " /></svg>